<mxfile host="app.diagrams.net" modified="2024-04-02T07:49:31.763Z" agent="Mozilla/5.0 (Windows NT 10.0; Win64; x64) AppleWebKit/537.36 (KHTML, like Gecko) Chrome/123.0.0.0 Safari/537.36" etag="L8HEWwLPKlOK-Hmr7KoT" version="24.2.1" type="device">
  <diagram name="Страница — 1" id="GLRoJzNRTtKxttM_8CBQ">
    <mxGraphModel dx="1434" dy="780" grid="1" gridSize="10" guides="1" tooltips="1" connect="1" arrows="1" fold="1" page="1" pageScale="1" pageWidth="827" pageHeight="1169" math="0" shadow="0">
      <root>
        <mxCell id="0" />
        <mxCell id="1" parent="0" />
        <mxCell id="h8LMQR13V1qV_bW2eGdH-6" style="edgeStyle=orthogonalEdgeStyle;rounded=0;orthogonalLoop=1;jettySize=auto;html=1;exitX=0.5;exitY=1;exitDx=0;exitDy=0;entryX=0.5;entryY=0;entryDx=0;entryDy=0;" edge="1" parent="1" source="h8LMQR13V1qV_bW2eGdH-2" target="h8LMQR13V1qV_bW2eGdH-3">
          <mxGeometry relative="1" as="geometry" />
        </mxCell>
        <mxCell id="h8LMQR13V1qV_bW2eGdH-2" value="Начало" style="ellipse;whiteSpace=wrap;html=1;" vertex="1" parent="1">
          <mxGeometry x="366" y="20" width="96" height="50" as="geometry" />
        </mxCell>
        <mxCell id="h8LMQR13V1qV_bW2eGdH-8" value="" style="edgeStyle=orthogonalEdgeStyle;rounded=0;orthogonalLoop=1;jettySize=auto;html=1;" edge="1" parent="1" source="h8LMQR13V1qV_bW2eGdH-3" target="h8LMQR13V1qV_bW2eGdH-7">
          <mxGeometry relative="1" as="geometry" />
        </mxCell>
        <mxCell id="h8LMQR13V1qV_bW2eGdH-3" value="Загрузка программы цветочный магазин" style="rounded=0;whiteSpace=wrap;html=1;" vertex="1" parent="1">
          <mxGeometry x="354" y="100" width="120" height="60" as="geometry" />
        </mxCell>
        <mxCell id="h8LMQR13V1qV_bW2eGdH-10" style="edgeStyle=orthogonalEdgeStyle;rounded=0;orthogonalLoop=1;jettySize=auto;html=1;exitX=0.5;exitY=1;exitDx=0;exitDy=0;entryX=0.5;entryY=0;entryDx=0;entryDy=0;" edge="1" parent="1" source="h8LMQR13V1qV_bW2eGdH-7" target="h8LMQR13V1qV_bW2eGdH-9">
          <mxGeometry relative="1" as="geometry" />
        </mxCell>
        <mxCell id="h8LMQR13V1qV_bW2eGdH-7" value="Авторизация" style="rounded=0;whiteSpace=wrap;html=1;" vertex="1" parent="1">
          <mxGeometry x="354" y="190" width="120" height="60" as="geometry" />
        </mxCell>
        <mxCell id="h8LMQR13V1qV_bW2eGdH-14" style="edgeStyle=orthogonalEdgeStyle;rounded=0;orthogonalLoop=1;jettySize=auto;html=1;exitX=0.5;exitY=1;exitDx=0;exitDy=0;entryX=0.5;entryY=0;entryDx=0;entryDy=0;" edge="1" parent="1" source="h8LMQR13V1qV_bW2eGdH-9" target="h8LMQR13V1qV_bW2eGdH-11">
          <mxGeometry relative="1" as="geometry" />
        </mxCell>
        <mxCell id="h8LMQR13V1qV_bW2eGdH-9" value="Ввод логина и пароля" style="shape=parallelogram;perimeter=parallelogramPerimeter;whiteSpace=wrap;html=1;fixedSize=1;" vertex="1" parent="1">
          <mxGeometry x="354" y="280" width="120" height="60" as="geometry" />
        </mxCell>
        <mxCell id="h8LMQR13V1qV_bW2eGdH-12" style="edgeStyle=orthogonalEdgeStyle;rounded=0;orthogonalLoop=1;jettySize=auto;html=1;exitX=0;exitY=0.5;exitDx=0;exitDy=0;" edge="1" parent="1" source="h8LMQR13V1qV_bW2eGdH-11">
          <mxGeometry relative="1" as="geometry">
            <mxPoint x="414" y="260" as="targetPoint" />
            <Array as="points">
              <mxPoint x="336" y="405" />
              <mxPoint x="336" y="260" />
            </Array>
          </mxGeometry>
        </mxCell>
        <mxCell id="h8LMQR13V1qV_bW2eGdH-13" value="Нет" style="edgeLabel;html=1;align=center;verticalAlign=middle;resizable=0;points=[];" vertex="1" connectable="0" parent="h8LMQR13V1qV_bW2eGdH-12">
          <mxGeometry x="-0.8765" y="1" relative="1" as="geometry">
            <mxPoint as="offset" />
          </mxGeometry>
        </mxCell>
        <mxCell id="h8LMQR13V1qV_bW2eGdH-16" style="edgeStyle=orthogonalEdgeStyle;rounded=0;orthogonalLoop=1;jettySize=auto;html=1;exitX=1;exitY=0.5;exitDx=0;exitDy=0;entryX=0.5;entryY=0;entryDx=0;entryDy=0;" edge="1" parent="1" source="h8LMQR13V1qV_bW2eGdH-11" target="h8LMQR13V1qV_bW2eGdH-15">
          <mxGeometry relative="1" as="geometry">
            <Array as="points">
              <mxPoint x="492" y="405" />
              <mxPoint x="492" y="450" />
              <mxPoint x="414" y="450" />
            </Array>
          </mxGeometry>
        </mxCell>
        <mxCell id="h8LMQR13V1qV_bW2eGdH-17" value="Да" style="edgeLabel;html=1;align=center;verticalAlign=middle;resizable=0;points=[];" vertex="1" connectable="0" parent="h8LMQR13V1qV_bW2eGdH-16">
          <mxGeometry x="-0.8282" y="1" relative="1" as="geometry">
            <mxPoint as="offset" />
          </mxGeometry>
        </mxCell>
        <mxCell id="h8LMQR13V1qV_bW2eGdH-11" value="Логин и&amp;nbsp;&lt;div&gt;пароль&amp;nbsp;&lt;/div&gt;&lt;div&gt;верный?&lt;/div&gt;" style="rhombus;whiteSpace=wrap;html=1;" vertex="1" parent="1">
          <mxGeometry x="356" y="370" width="116" height="70" as="geometry" />
        </mxCell>
        <mxCell id="h8LMQR13V1qV_bW2eGdH-19" style="edgeStyle=orthogonalEdgeStyle;rounded=0;orthogonalLoop=1;jettySize=auto;html=1;exitX=0.5;exitY=1;exitDx=0;exitDy=0;entryX=0.5;entryY=0;entryDx=0;entryDy=0;" edge="1" parent="1" source="h8LMQR13V1qV_bW2eGdH-15" target="h8LMQR13V1qV_bW2eGdH-18">
          <mxGeometry relative="1" as="geometry" />
        </mxCell>
        <mxCell id="h8LMQR13V1qV_bW2eGdH-15" value="Просмотр главного окна приложения" style="rounded=0;whiteSpace=wrap;html=1;" vertex="1" parent="1">
          <mxGeometry x="354" y="470" width="120" height="60" as="geometry" />
        </mxCell>
        <mxCell id="h8LMQR13V1qV_bW2eGdH-35" style="edgeStyle=orthogonalEdgeStyle;rounded=0;orthogonalLoop=1;jettySize=auto;html=1;exitX=0.5;exitY=1;exitDx=0;exitDy=0;entryX=0.5;entryY=0;entryDx=0;entryDy=0;" edge="1" parent="1" source="h8LMQR13V1qV_bW2eGdH-18" target="h8LMQR13V1qV_bW2eGdH-25">
          <mxGeometry relative="1" as="geometry" />
        </mxCell>
        <mxCell id="h8LMQR13V1qV_bW2eGdH-18" value="Функциональные возможности:&lt;div&gt;- добавление, удаление и редактирования товаров;&lt;/div&gt;&lt;div&gt;- добавление, удаление и редактирования поставщиков;&lt;/div&gt;&lt;div&gt;- назначение продажи товара;&lt;/div&gt;&lt;div&gt;назначение поставки товара.&lt;/div&gt;" style="shape=process;whiteSpace=wrap;html=1;backgroundOutline=1;align=left;" vertex="1" parent="1">
          <mxGeometry x="293" y="560" width="242" height="120" as="geometry" />
        </mxCell>
        <mxCell id="h8LMQR13V1qV_bW2eGdH-20" value="Конец" style="ellipse;whiteSpace=wrap;html=1;" vertex="1" parent="1">
          <mxGeometry x="353" y="1040" width="120" height="50" as="geometry" />
        </mxCell>
        <mxCell id="h8LMQR13V1qV_bW2eGdH-21" style="edgeStyle=orthogonalEdgeStyle;rounded=0;orthogonalLoop=1;jettySize=auto;html=1;exitX=1;exitY=0.5;exitDx=0;exitDy=0;entryX=0.5;entryY=0;entryDx=0;entryDy=0;" edge="1" parent="1" source="h8LMQR13V1qV_bW2eGdH-25" target="h8LMQR13V1qV_bW2eGdH-31">
          <mxGeometry relative="1" as="geometry" />
        </mxCell>
        <mxCell id="h8LMQR13V1qV_bW2eGdH-22" value="Да" style="edgeLabel;html=1;align=center;verticalAlign=middle;resizable=0;points=[];" vertex="1" connectable="0" parent="h8LMQR13V1qV_bW2eGdH-21">
          <mxGeometry x="-0.6768" y="-1" relative="1" as="geometry">
            <mxPoint y="-1" as="offset" />
          </mxGeometry>
        </mxCell>
        <mxCell id="h8LMQR13V1qV_bW2eGdH-23" style="edgeStyle=orthogonalEdgeStyle;rounded=0;orthogonalLoop=1;jettySize=auto;html=1;exitX=0;exitY=0.5;exitDx=0;exitDy=0;entryX=0.5;entryY=0;entryDx=0;entryDy=0;" edge="1" parent="1" source="h8LMQR13V1qV_bW2eGdH-25" target="h8LMQR13V1qV_bW2eGdH-29">
          <mxGeometry relative="1" as="geometry" />
        </mxCell>
        <mxCell id="h8LMQR13V1qV_bW2eGdH-24" value="Нет" style="edgeLabel;html=1;align=center;verticalAlign=middle;resizable=0;points=[];" vertex="1" connectable="0" parent="h8LMQR13V1qV_bW2eGdH-23">
          <mxGeometry x="-0.8462" y="-1" relative="1" as="geometry">
            <mxPoint as="offset" />
          </mxGeometry>
        </mxCell>
        <mxCell id="h8LMQR13V1qV_bW2eGdH-25" value="Вывести отчет?" style="rhombus;whiteSpace=wrap;html=1;" vertex="1" parent="1">
          <mxGeometry x="355" y="720" width="118" height="60" as="geometry" />
        </mxCell>
        <mxCell id="h8LMQR13V1qV_bW2eGdH-33" style="edgeStyle=orthogonalEdgeStyle;rounded=0;orthogonalLoop=1;jettySize=auto;html=1;exitX=1;exitY=0.5;exitDx=0;exitDy=0;entryX=0.5;entryY=0;entryDx=0;entryDy=0;" edge="1" parent="1" source="h8LMQR13V1qV_bW2eGdH-29" target="h8LMQR13V1qV_bW2eGdH-20">
          <mxGeometry relative="1" as="geometry" />
        </mxCell>
        <mxCell id="h8LMQR13V1qV_bW2eGdH-34" value="Да" style="edgeLabel;html=1;align=center;verticalAlign=middle;resizable=0;points=[];" vertex="1" connectable="0" parent="h8LMQR13V1qV_bW2eGdH-33">
          <mxGeometry x="-0.8105" relative="1" as="geometry">
            <mxPoint as="offset" />
          </mxGeometry>
        </mxCell>
        <mxCell id="h8LMQR13V1qV_bW2eGdH-36" style="edgeStyle=orthogonalEdgeStyle;rounded=0;orthogonalLoop=1;jettySize=auto;html=1;exitX=0;exitY=0.5;exitDx=0;exitDy=0;" edge="1" parent="1" source="h8LMQR13V1qV_bW2eGdH-29">
          <mxGeometry relative="1" as="geometry">
            <mxPoint x="414" y="450" as="targetPoint" />
            <Array as="points">
              <mxPoint x="260" y="950" />
              <mxPoint x="260" y="450" />
            </Array>
          </mxGeometry>
        </mxCell>
        <mxCell id="h8LMQR13V1qV_bW2eGdH-37" value="Нет" style="edgeLabel;html=1;align=center;verticalAlign=middle;resizable=0;points=[];" vertex="1" connectable="0" parent="h8LMQR13V1qV_bW2eGdH-36">
          <mxGeometry x="-0.9573" y="1" relative="1" as="geometry">
            <mxPoint as="offset" />
          </mxGeometry>
        </mxCell>
        <mxCell id="h8LMQR13V1qV_bW2eGdH-29" value="Выход?" style="rhombus;whiteSpace=wrap;html=1;" vertex="1" parent="1">
          <mxGeometry x="355" y="920" width="118" height="60" as="geometry" />
        </mxCell>
        <mxCell id="h8LMQR13V1qV_bW2eGdH-32" style="edgeStyle=orthogonalEdgeStyle;rounded=0;orthogonalLoop=1;jettySize=auto;html=1;exitX=0.5;exitY=1;exitDx=0;exitDy=0;entryX=0.5;entryY=0;entryDx=0;entryDy=0;" edge="1" parent="1" source="h8LMQR13V1qV_bW2eGdH-31" target="h8LMQR13V1qV_bW2eGdH-29">
          <mxGeometry relative="1" as="geometry" />
        </mxCell>
        <mxCell id="h8LMQR13V1qV_bW2eGdH-31" value="Вывод отчетов по товарам, поставщикам, поставкам товаров и продажам" style="shape=parallelogram;perimeter=parallelogramPerimeter;whiteSpace=wrap;html=1;fixedSize=1;" vertex="1" parent="1">
          <mxGeometry x="440" y="790" width="182" height="80" as="geometry" />
        </mxCell>
      </root>
    </mxGraphModel>
  </diagram>
</mxfile>
